<svg width="215" height="71" viewBox="0 0 215 71" fill="none" xmlns="http://www.w3.org/2000/svg">
<path opacity="0.5" fill-rule="evenodd" clip-rule="evenodd" d="M210.09 17.1965L209.733 18.265L210.115 18.3924L210.496 18.5198L210.957 17.9609L211.416 17.4019L212.071 17.6204L212.725 17.8388L212.868 17.4115L213.011 16.9841L211.729 16.5561L210.446 16.1282L210.09 17.1965ZM211.899 18.9509L211.176 19.6343L211.095 19.8758L211.015 20.1177L211.574 20.3044L212.134 20.4912L213.128 20.1734L214.123 19.8553L213.373 19.0614L212.622 18.2675L211.899 18.9509ZM143.601 1.15775L143.446 2.31244L142.771 2.08689L142.095 1.86121L141.338 2.57666L140.581 3.29199L140.567 4.25382L140.552 5.21609L139.752 5.50752L138.952 5.7994L137.903 7.24049L136.855 8.68116L136.574 10.4781L136.294 12.2744L137.325 12.6185L138.356 12.9626L138.498 12.5352L138.641 12.1079L139.282 12.3219L139.923 12.5358L139.709 13.1769L139.495 13.8179L140.35 14.1032L141.204 14.3886L141.062 14.8159L140.919 15.2433L141.56 15.4573L142.201 15.6713L142.067 16.0734L141.933 16.4756L141.417 16.597L140.902 16.7185L140.767 17.1206L140.633 17.5227L141.274 17.7367L141.915 17.9507L142.129 17.3097L142.343 16.6686L142.771 16.8113L143.198 16.954L143.055 17.3813L142.913 17.8087L143.702 18.0723L144.492 18.3359L144.656 20.1719L144.821 22.0079L144.574 25.4879L144.327 28.9679L144.195 30.23L144.063 31.4921L143.24 31.2175L142.417 30.9427L142.355 31.8721L142.293 32.8014L141.803 32.6376L141.312 32.4738L141.28 31.7508L141.248 31.0276L140.867 30.9002L140.485 30.7728L140.2 31.6275L139.914 32.4822L139.359 32.2967L138.803 32.1113L138.452 31.4085L138.101 30.7056L137.533 31.5768L136.965 32.4477L136.588 32.3216L136.21 32.1957L136.353 31.7683L136.496 31.3409L135.381 30.9689L134.266 30.5967L134.178 31.7547L134.089 32.9125L133.52 32.7225L132.95 32.5325L131.294 33.4046L129.638 34.2767L128.695 33.9619L127.753 33.6472L127.255 34.2517L126.758 34.856L125.583 34.184L124.408 33.5122L124.015 33.8401L123.621 34.168L122.792 33.8911L121.962 33.6142L121.753 34.2403L121.544 34.8664L120.518 35.0415L119.491 35.217L118.77 34.6917L118.048 34.1659L117.485 34.6786L116.922 35.1908L116.099 34.8299L115.274 34.4692L114.527 35.2885L113.78 36.1077L113.454 35.9989L113.128 35.89L113.351 35.2204L113.575 34.5502L112.607 34.5359L111.639 34.5215L111.19 33.7994L110.742 33.0773L110.581 33.5572L110.421 34.0367L109.78 33.8227L109.139 33.6087L108.997 34.0361L108.854 34.4634L109.709 34.7488L110.563 35.0341L110.201 36.1187L109.839 37.2033L108.905 36.7995L107.971 36.396L107.173 36.203L106.374 36.0103L106.36 36.9557L106.346 37.901L105.884 37.7467L105.422 37.5925L104.795 36.8332L104.167 36.0738L103.442 36.1062L102.717 36.1381L101.106 37.7893L99.4957 39.4398L97.6796 40.061L95.863 40.6819L94.9413 40.0936L94.0192 39.505L92.6697 40.2325L91.3201 40.9599L89.8991 40.4856L88.4777 40.0111L88.2064 40.824L87.9351 41.6368L86.4327 41.6568L84.9302 41.6768L84.2798 41.4597L83.6289 41.2424L82.5744 41.705L81.5193 42.1679L80.3544 41.8398L79.1894 41.5122L77.824 41.1305L76.4585 40.7488L75.9278 41.3938L75.3971 42.0389L75.7986 42.3401L76.2 42.6417L76.0693 43.0332L75.9385 43.4251L74.929 43.9193L73.9199 44.4137L71.6926 45.0001L69.4653 45.5866L68.7696 45.0798L68.0733 44.5729L67.5344 45.399L66.9957 46.2247L66.2173 45.658L65.4395 45.091L64.7795 46.1247L64.12 47.1585L63.4047 46.6917L62.6894 46.225L61.9517 46.6831L61.2141 47.1413L60.1335 46.5236L59.0536 45.9057L58.4184 46.9006L57.7834 47.8951L56.3256 48.5555L54.8674 49.2158L54.5618 49.1138L54.2558 49.0117L54.7906 48.0583L55.325 47.1048L54.9539 46.6599L54.5828 46.2149L54.8445 45.4311L55.1061 44.6473L54.559 44.1973L54.0121 43.7469L53.6513 44.0482L53.2901 44.3489L53.6351 44.7624L53.9797 45.1757L53.4889 46.6463L52.998 48.1168L53.4775 48.2769L53.9574 48.4371L53.234 48.8867L52.5103 49.3358L50.2472 49.8134L47.9841 50.2909L47.6473 49.8869L47.3105 49.4828L46.831 50.0656L46.3516 50.648L45.9699 50.5206L45.5883 50.3932L46.9999 46.1645L48.4114 41.9362L48.4816 38.8243L48.5522 35.713L49.0683 34.5767L49.5848 33.4405L48.4547 32.9131L47.3246 32.3854L47.5247 31.7862L47.7247 31.187L48.2837 31.6468L48.8426 32.1069L49.0745 31.412L49.3065 30.7171L48.1486 30.6284L46.9906 30.5402L47.3628 29.4252L47.7349 28.3106L47.4417 28.2128L47.149 28.1151L45.8201 28.7278L44.4913 29.3406L44.3416 28.7957L44.1924 28.251L42.8882 27.8893L41.584 27.5275L41.2087 28.1922L40.833 28.8566L39.9432 28.5596L39.0535 28.2626L37.215 28.891L35.3764 29.5198L35.0916 28.9497L34.8069 28.3797L33.9171 28.3206L33.0268 28.2614L32.8449 28.8063L32.663 29.3512L31.4597 29.2592L30.2559 29.1671L26.1228 31.0918L21.9893 33.016L21.3261 32.7946L20.6628 32.5732L20.5201 33.0005L20.3775 33.4279L19.7886 33.2313L19.2001 33.0349L18.454 33.4983L17.708 33.9617L16.9058 33.694L16.1032 33.4261L15.8084 34.3094L15.5133 35.1932L14.7492 34.6365L13.9851 34.0798L13.8348 34.5298L13.6845 34.9803L11.6496 35.5269L9.61465 36.0735L8.86924 35.6742L8.12384 35.2748L7.68664 36.1491L7.24944 37.0234L6.34617 36.9632L5.44277 36.9034L5.14418 37.7978L4.84546 38.6927L4.33476 38.5223L3.82363 38.3516L2.24198 39.0999L0.659906 39.8481L0.329934 40.8366L-2.70232e-05 41.8251L0.427339 41.9677L0.854701 42.1104L0.656546 42.704L0.458539 43.2972L1.84933 44.0711L3.24028 44.8446L4.75773 44.6074L6.27505 44.3705L6.41414 43.9538L6.55309 43.5376L7.08744 43.7155L7.62179 43.8934L10.6158 43.4617L13.6098 43.03L17.2398 42.1162L20.8695 41.2028L22.5006 40.9412L24.1314 40.68L24.2837 40.224L24.4357 39.7685L26.5732 39.4128L28.7107 39.0566L29.1783 39.2142L29.6458 39.3716L30.7046 38.7751L31.7635 38.1786L32.7169 38.4969L33.6699 38.815L35.0562 38.5966L36.4426 38.3778L36.9671 37.9407L37.4917 37.5031L38.2401 38.8924L38.9891 40.2814L38.8099 40.8182L38.6307 41.3549L39.5468 41.8122L40.4627 42.27L40.1867 45.0277L39.9111 47.7856L39.7978 50.1882L39.6849 52.591L40.0219 53.5879L40.3588 54.5848L40.0689 55.4988L39.7792 56.4124L40.2903 57.2347L40.8009 58.0572L41.684 58.1948L42.5673 58.332L42.1553 58.6756L41.7434 59.0188L42.1135 59.4625L42.4831 59.906L43.8036 59.297L45.124 58.6881L45.4387 59.0658L45.7539 59.4436L48.9784 58.8833L52.2036 58.3226L52.5273 58.4202L52.8511 58.5174L52.5658 59.3721L52.2804 60.2268L52.7078 60.3695L53.1352 60.5121L53.4918 59.4437L53.8485 58.3753L55.1305 58.8033L56.4126 59.2313L56.27 59.6586L56.1273 60.086L56.9821 60.3713L57.8368 60.6566L58.1934 59.5882L58.5501 58.5198L59.8783 58.9632L61.207 59.4067L61.2952 58.2487L61.3839 57.0909L62.4605 57.4503L63.537 57.8096L63.6778 57.3878L63.8185 56.9664L65.6398 56.8462L67.4611 56.7261L68.6545 55.9968L69.8479 55.2676L71.7632 55.5773L73.6786 55.8866L73.5234 56.3516L73.3682 56.8165L73.7956 56.9592L74.2229 57.1018L74.5796 56.0335L74.9362 54.965L75.5559 55.1719L76.176 55.3789L76.8262 54.7871L77.476 54.1951L77.9851 55.0148L78.494 55.834L79.0448 54.9895L79.5953 54.1454L80.1868 54.3429L80.7779 54.5401L80.6352 54.9675L80.4925 55.3949L80.9554 55.5494L81.4186 55.704L81.4189 55.127L81.419 54.5504L82.9058 53.9609L84.3925 53.3718L85.24 53.6547L86.0875 53.9376L86.8449 53.4671L87.6018 52.9968L88.3121 53.5142L89.0224 54.0315L89.1946 53.5157L89.3669 52.9994L90.3043 52.6816L91.2416 52.3637L91.9586 52.5878L92.6751 52.8118L93.0173 52.356L93.3594 51.9003L94.9338 52.4258L96.5078 52.9512L96.8072 52.0542L97.1067 51.1572L98.6973 51.1177L100.288 51.0782L100.967 51.305L101.647 51.5318L103.154 50.61L104.661 49.688L105.329 49.9111L105.998 50.1343L106.14 49.707L106.283 49.2796L106.924 49.4936L107.565 49.7076L107.326 50.423L107.087 51.1388L108.387 50.5394L109.686 49.9406L110.09 50.0599L110.495 50.1789L111.725 49.6977L112.954 49.2165L113.128 48.6964L113.301 48.1759L114.92 49.0201L116.538 49.8642L116.682 49.4317L116.826 48.9992L118.117 49.4299L119.407 49.8606L119.496 48.7028L119.584 47.5448L120.058 47.703L120.531 47.861L120.317 48.5021L120.103 49.1431L120.744 49.3571L121.385 49.5711L121.885 48.0753L122.384 46.5796L122.786 46.7138L123.188 46.8481L123.316 47.3888L123.443 47.9291L124.189 47.6391L124.935 47.3495L125.288 47.7722L125.64 48.1952L126.508 47.2637L127.375 46.332L128.043 46.8187L128.712 47.3054L129.117 46.9672L129.523 46.629L130.07 47.0794L130.617 47.5294L130.775 47.0564L130.932 46.5833L131.559 46.7922L132.185 47.0012L132.931 46.296L133.677 45.5908L134.598 46.1785L135.519 46.7668L137.076 46.5232L138.634 46.2798L138.744 45.9491L138.854 45.6187L140.407 45.59L141.961 45.5618L143.715 46.3523L145.47 47.1428L145.748 46.3098L146.026 45.4769L146.585 45.9366L147.144 46.3968L147.463 45.4429L147.781 44.4891L148.993 45.1823L150.204 45.8751L150.659 45.3229L151.114 44.7703L152.115 45.1046L153.117 45.439L153.654 44.9675L154.191 44.4961L156.383 44.1732L158.574 43.8499L159.5 44.3687L160.425 44.8876L160.853 44.0325L161.281 43.177L162.243 43.3527L163.204 43.5283L163.714 42.7466L164.224 41.965L165.657 42.7621L167.091 43.5598L167.249 43.0845L167.408 42.6097L168.205 42.8758L169.002 43.1419L170.374 42.6499L171.746 42.1578L172.213 42.3138L172.679 42.4696L172.965 41.6148L173.25 40.7601L173.652 40.8944L174.054 41.0286L174.173 41.5333L174.292 42.0384L173.564 42.7265L172.837 43.4145L173.176 43.822L173.517 44.23L173.24 45.0595L172.963 45.8891L172.086 45.5963L171.209 45.3036L170.334 46.4364L169.459 47.5693L169.074 47.4406L168.688 47.3119L168.47 47.9662L168.251 48.6209L167.528 48.6527L166.805 48.6849L166.531 49.5045L166.258 50.3242L165.054 50.3736L163.85 50.4229L163.632 51.0746L163.415 51.7264L162.987 51.5837L162.56 51.441L162.277 52.2876L161.995 53.1342L160.822 53.0445L159.651 52.955L159.636 53.9097L159.622 54.8644L158.569 54.1922L157.515 53.5198L157.502 54.4439L157.488 55.3679L157 55.4829L156.512 55.5978L156.447 56.5783L156.381 57.5592L155.209 56.859L154.036 56.1582L153.381 58.2143L152.725 60.2702L150.949 59.9147L149.172 59.559L148.781 60.2578L148.39 60.957L149.154 60.9233L149.918 60.8892L150.392 61.6515L150.866 62.4138L150.445 62.9246L150.025 63.4351L150.933 64.2808L151.841 65.1263L151.528 65.5331L151.214 65.9403L149.912 65.3566L148.61 64.7729L148.489 65.1353L148.368 65.4981L149.418 66.7076L150.468 67.9174L151.598 68.0038L152.727 68.09L152.572 68.5541L152.417 69.0187L153.307 69.032L154.196 69.0448L154.23 69.8109L154.264 70.5769L156.092 69.7366L157.921 68.896L159.285 69.3495L160.649 69.8026L161.076 69.4467L161.502 69.0913L161.924 69.7691L162.345 70.4468L163.313 70.4612L164.281 70.4756L164.556 69.65L164.832 68.8239L164.191 68.6099L163.55 68.3959L163.407 68.8232L163.265 69.2506L162.624 69.0366L161.983 68.8226L162.196 68.1829L162.41 67.5431L164.526 66.3482L166.643 65.1535L167.168 65.3287L167.693 65.504L168.759 64.9034L169.826 64.3027L170.462 64.7659L171.098 65.2295L171.962 64.3011L172.826 63.3731L173.034 62.7522L173.241 62.1312L173.668 62.2739L174.096 62.4165L174.452 61.3481L174.809 60.2797L175.647 60.5593L176.484 60.8389L177.567 59.3004L178.65 57.762L179.223 57.9533L179.796 58.1448L180.01 57.5037L180.224 56.8627L180.652 57.0053L181.079 57.148L181.298 56.4937L181.516 55.839L182.254 55.8064L182.991 55.7738L183.004 54.8846L183.017 53.9952L184.538 54.5029L186.059 55.0106L186.878 54.3341L187.698 53.6575L188.236 53.8373L188.774 54.0169L189.025 53.2664L189.275 52.516L190.624 52.3886L191.973 52.2608L192.85 52.8336L193.728 53.4063L193.958 52.7156L194.189 52.0246L193.121 51.668L192.052 51.3113L192.179 50.9301L192.307 50.5493L193.434 50.6353L194.561 50.7214L195.117 49.9584L195.673 49.195L196.285 49.3993L196.897 49.6037L197.111 48.9627L197.325 48.3216L197.92 48.5203L198.516 48.7191L199.012 48.1166L199.508 47.5136L199.976 48.8199L200.445 50.1258L200.17 51.9089L199.896 53.6922L200.316 55.0961L200.736 56.4998L200.421 61.5437L200.108 66.5873L200.984 67.0318L201.86 67.4762L202.331 66.9047L202.801 66.333L203.685 55.7259L204.569 45.1188L204.866 44.2286L205.163 43.3384L206.232 43.6951L207.3 44.0517L207.504 43.441L207.708 42.8307L208.623 42.3734L209.538 41.9166L209.791 40.2359L210.044 38.5554L210.532 37.2933L211.02 36.0312L211.186 35.3742L211.351 34.717L211.69 33.2393L212.028 31.7615L211.116 30.0789L210.202 28.3962L209.752 28.2459L209.302 28.0955L209.444 27.6681L209.587 27.2408L208.946 27.0268L208.305 26.8128L208.519 26.1718L208.733 25.5307L207.878 25.2454L207.023 24.9601L207.209 24.4045L207.394 23.8489L207.94 23.5762L208.487 23.3032L208.318 22.588L208.15 21.873L207.419 21.9052L206.69 21.9375L206.343 23.752L205.996 25.567L205.011 25.2384L204.027 24.9099L203.032 25.3463L202.037 25.7831L200.028 25.3546L198.018 24.9263L197.567 24.2006L197.116 23.4748L195.447 23.5159L193.78 23.5573L193.283 22.7572L192.786 21.9577L192.126 22.2871L191.466 22.6168L190.91 22.4313L190.355 22.2459L190.569 21.6048L190.783 20.9638L190.142 20.7498L189.501 20.5358L189.322 21.07L189.144 21.6042L185.558 20.2393L181.971 18.8743L181.123 18.9386L180.275 19.0032L178.227 18.379L176.18 17.7544L176.377 17.1638L176.574 16.5732L173.879 15.9997L171.182 15.4265L171.246 14.4702L171.31 13.5135L170.771 13.3336L170.232 13.1537L169.486 13.6172L168.74 14.0806L167.776 13.7589L166.813 13.4372L166.518 12.6791L166.224 11.9212L164.474 10.8027L162.724 9.68381L162.936 9.04918L163.148 8.41413L162.721 8.27147L162.293 8.12881L162.154 8.54635L162.015 8.96387L160.636 9.3273L159.258 9.69086L157.125 8.87457L154.994 8.05841L154.711 7.49353L154.429 6.92863L150.395 5.58193L146.361 4.23523L145.571 4.79653L144.78 5.35725L144.161 4.25908L143.542 3.16048L144.07 1.91178L144.599 0.663226L144.177 0.333071L143.756 0.00334629L143.601 1.15775ZM160.157 7.41552L160.014 7.84289L160.655 8.05687L161.296 8.27086L161.439 7.84349L161.581 7.41613L160.94 7.20214L160.299 6.98816L160.157 7.41552ZM158.233 7.48593L158.162 7.69961L158.375 7.77094L158.589 7.84226L158.66 7.62858L158.732 7.4149L158.518 7.34358L158.304 7.27224L158.233 7.48593ZM191.923 20.3944L191.78 20.8217L192.421 21.0357L193.062 21.2497L193.205 20.8224L193.348 20.395L192.707 20.181L192.066 19.967L191.923 20.3944ZM135.528 2.74185L135.26 2.87565L134.932 4.44715L134.604 6.0185L135.517 6.60174L136.43 7.18444L136.975 7.05616L137.52 6.92789L137.735 6.28343L137.95 5.63854L137.045 5.62504L136.139 5.61154L136.008 5.0527L135.876 4.49343L136.522 4.09236L137.167 3.69143L136.98 3.31637L136.793 2.94128L136.294 2.77481L135.795 2.60832L135.528 2.74185ZM212.649 29.4504L212.435 30.0915L213.504 30.4481L214.572 30.8048L214.786 30.1637L215 29.5227L213.932 29.166L212.863 28.8094L212.649 29.4504ZM149.394 20.4472L149.516 20.9628L151.014 21.4631L152.513 21.9632L153.551 21.786L154.589 21.6087L154.734 22.0621L154.879 22.5155L156.484 23.1388L158.089 23.7615L158.504 24.4298L158.919 25.0979L159.346 24.7424L159.772 24.3866L160.174 24.5208L160.577 24.6551L160.363 25.2961L160.149 25.9371L160.576 26.0798L161.003 26.2225L160.789 26.8635L160.575 27.5045L161.003 27.6472L161.43 27.7899L161.644 27.1488L161.858 26.5078L161.431 26.3651L161.003 26.2225L161.217 25.5814L161.431 24.9404L162.072 25.1544L162.713 25.3684L162.499 26.0094L162.285 26.6504L162.773 26.8131L163.26 26.9757L163.578 27.913L163.896 28.8504L163.8 29.1836L163.704 29.5168L162.794 28.9361L161.884 28.355L161.15 28.811L160.416 29.2667L160.772 29.6932L161.127 30.1198L160.993 30.5219L160.859 30.924L159.577 30.4961L158.295 30.0681L158.437 29.6407L158.58 29.2134L157.725 28.928L156.871 28.6427L156.657 29.2838L156.443 29.9248L157.084 30.1388L157.725 30.3528L157.511 30.9938L157.297 31.6349L156.254 31.2866L155.21 30.9384L154.804 31.2776L154.397 31.6168L153.08 31.1773L151.763 30.7377L151.091 31.173L150.418 31.6078L148.722 31.3536L147.026 31.0994L147.373 30.0601L147.72 29.0208L147.827 25.0837L147.934 21.1472L147.938 20.3173L147.941 19.4873L148.607 19.7095L149.273 19.9317L149.394 20.4472ZM207.23 41.4159L207.159 41.6296L206.945 41.5583L206.731 41.4869L206.803 41.2732L206.874 41.0596L207.088 41.1309L207.301 41.2022L207.23 41.4159ZM158.296 27.2186L158.153 27.646L158.581 27.7886L159.008 27.9313L159.151 27.5039L159.293 27.0766L158.866 26.9339L158.439 26.7912L158.296 27.2186ZM179.384 42.3048L179.25 42.7069L178.7 42.8363L178.15 42.9659L177.998 42.6619L177.847 42.3577L178.28 41.9961L178.714 41.6341L179.116 41.7684L179.518 41.9026L179.384 42.3048ZM147.608 32.2006L147.466 32.6279L147.038 32.4853L146.611 32.3426L146.753 31.9153L146.896 31.4879L147.323 31.6306L147.751 31.7732L147.608 32.2006ZM176.669 41.9014L176.526 42.3287L176.124 42.1945L175.722 42.0602L175.601 41.5447L175.479 41.0292L176.145 41.2516L176.812 41.474L176.669 41.9014ZM170.91 43.5019L170.684 44.1784L171.361 44.4042L172.037 44.6302L172.038 44.0664L172.038 43.5022L171.587 43.1636L171.136 42.8249L170.91 43.5019ZM167.621 44.1058L167.214 44.445L167.57 44.5305L167.926 44.6156L168.903 44.5338L169.88 44.452L168.954 44.1091L168.028 43.7666L167.621 44.1058ZM165.84 44.4612L165.697 44.8886L166.124 45.0312L166.552 45.1739L166.694 44.7465L166.837 44.3192L166.41 44.1765L165.982 44.0339L165.84 44.4612ZM122.96 32.0475L122.817 32.4748L123.245 32.6175L123.672 32.7601L123.815 32.3328L123.957 31.9054L123.53 31.7628L123.103 31.6201L122.96 32.0475ZM106.641 33.9771L106.432 34.6049L107.073 34.8188L107.714 35.0328L107.841 34.6512L107.969 34.2696L107.41 33.8094L106.851 33.3497L106.641 33.9771ZM111.703 35.8894L111.56 36.3168L111.133 36.1741L110.706 36.0314L110.848 35.6041L110.991 35.1767L111.418 35.3194L111.846 35.462L111.703 35.8894ZM98.8082 37.5223L98.7369 37.736L98.9506 37.8073L99.1643 37.8786L99.2356 37.6649L99.3069 37.4513L99.0932 37.3799L98.8795 37.3086L98.8082 37.5223ZM39.6869 20.0089L38.9903 20.3568L38.8762 20.6987L38.762 21.0406L39.8305 21.3972L40.8989 21.7539L40.7428 22.2214L40.5869 22.6885L39.6575 22.6267L38.7282 22.5649L38.6021 22.9427L38.4761 23.3201L39.7582 23.748L41.0403 24.176L41.6109 22.4666L42.1816 20.7571L41.7892 20.6262L41.3969 20.4952L40.8902 20.0781L40.3834 19.661L39.6869 20.0089ZM33.4727 21.648L32.9629 22.4296L32.4188 22.248L31.8752 22.0666L30.7102 22.5089L29.5451 22.9512L29.9028 24.1393L30.26 25.3272L31.3383 25.6872L32.4165 26.0471L32.5663 24.6394L32.716 23.2317L33.6891 23.2962L34.6625 23.3613L34.916 22.6019L35.1693 21.8429L34.5757 21.3545L33.9825 20.8663L33.4727 21.648ZM113.976 50.4227L113.834 50.8501L114.261 50.9928L114.688 51.1354L114.831 50.7081L114.974 50.2807L114.546 50.138L114.119 49.9954L113.976 50.4227ZM77.5774 42.5178L77.577 43.1408L77.0787 42.7669L76.58 42.3924L76.5805 41.7694L76.5806 41.1458L77.0792 41.5203L77.5776 41.8942L77.5774 42.5178ZM103.731 51.7891L103.245 53.0861L104.098 52.6599L104.952 52.2337L104.918 51.4734L104.885 50.7127L104.55 50.602L104.216 50.4919L103.731 51.7891ZM105.926 51.7728L105.855 51.9864L106.068 52.0578L106.282 52.1291L106.353 51.9154L106.425 51.7017L106.211 51.6304L105.997 51.5591L105.926 51.7728ZM143.462 65.9652L143.319 66.3925L143.96 66.6065L144.601 66.8205L144.744 66.3931L144.887 65.9658L144.246 65.7518L143.605 65.5378L143.462 65.9652ZM73.0176 43.6375L72.9463 43.8512L73.16 43.9225L73.3737 43.9939L73.445 43.7802L73.5163 43.5665L73.3026 43.4952L73.089 43.4238L73.0176 43.6375ZM98.5882 52.4107L98.4455 52.8381L98.8729 52.9808L99.3002 53.1234L99.4429 52.696L99.5855 52.2687L99.1582 52.126L98.7308 51.9834L98.5882 52.4107ZM91.9745 53.3398L91.5589 53.5473L91.3401 54.2029L91.1214 54.8581L91.7557 54.5416L92.3897 54.2246L92.3901 53.6785L92.39 53.1323L91.9745 53.3398ZM40.3923 40.3465L40.1783 40.9876L39.7509 40.8449L39.3235 40.7023L39.5375 40.0612L39.7515 39.4202L40.1789 39.5628L40.6062 39.7055L40.3923 40.3465ZM35.6907 40.202L35.6193 40.4157L35.833 40.487L36.0467 40.5584L36.118 40.3447L36.1893 40.131L35.9757 40.0597L35.762 39.9884L35.6907 40.202ZM71.5871 57.172L71.7086 57.6875L72.1107 57.8217L72.5129 57.956L72.6555 57.5286L72.7982 57.1012L72.1319 56.8788L71.4657 56.6564L71.5871 57.172ZM0.92785 37.6225L0.856521 37.8362L1.07021 37.9075L1.28389 37.9788L1.35522 37.7651L1.42655 37.5515L1.21286 37.4801L0.99918 37.4088L0.92785 37.6225Z" fill="#142657"/>
<path opacity="0.5" fill-rule="evenodd" clip-rule="evenodd" d="M210.159 16.9826L209.874 17.8373L210.301 17.98L210.728 18.1227L211.014 17.2679L211.299 16.4132L210.872 16.2706L210.444 16.1279L210.159 16.9826ZM212.011 17.1259L211.821 17.6956L212.201 17.5061L212.581 17.3161L212.391 16.936L212.201 16.5562L212.011 17.1259ZM212.168 18.9086L211.664 19.5209L211.772 19.7379L211.881 19.9547L212.673 19.9198L213.465 19.8845L213.664 19.2892L213.863 18.6939L213.267 18.4952L212.672 18.2965L212.168 18.9086ZM143.916 0.569673L143.725 1.13934L144.105 0.949877L144.485 0.759836L144.296 0.379772L144.106 3.77764e-06L143.916 0.569673ZM206.763 22.077L206.311 22.4543L206.775 23.0235L207.24 23.5932L207.558 23.707L207.876 23.8204L208.162 22.9657L208.447 22.111L207.831 21.9054L207.215 21.6998L206.763 22.077ZM160.511 7.77174L160.439 7.98542L160.653 8.05674L160.867 8.12807L160.938 7.91439L161.009 7.70071L160.796 7.62938L160.582 7.55806L160.511 7.77174ZM141.825 2.08869L141.445 2.27815L141.255 2.84826L141.065 3.41793L141.752 3.64718L142.438 3.87643L141.934 4.48942L141.43 5.10198L141.883 6.13469L142.336 7.16696L141.867 7.01061L141.399 6.85426L141.277 6.33874L141.156 5.82321L140.807 5.7068L140.458 5.5904L139.774 6.78688L139.09 7.98337L138.438 7.76582L137.786 7.54826L137.557 8.06563L137.328 8.58286L137.217 9.16638L137.105 9.75005L137.682 10.9038L138.258 12.058L139.281 11.6091L140.304 11.1602L140.113 12.2045L139.921 13.2481L141.479 13.9156L143.037 14.5835L142.848 15.1523L142.658 15.7211L143.601 16.3233L144.544 16.9251L144.796 19.0297L145.048 21.1343L144.656 26.2553L144.264 31.3768L143.054 32.237L141.845 33.0972L141.195 32.9101L140.545 32.7235L139.521 33.0687L138.498 33.4144L137.625 32.857L136.752 32.3001L136.341 32.6434L135.929 32.9866L136.299 33.4303L136.669 33.874L135.4 34.074L134.131 34.2742L133.388 33.7891L132.644 33.3042L132.115 34.1155L131.586 34.9272L130.691 34.6287L129.796 34.3299L129.647 34.7761L129.498 35.2223L129.005 34.9213L128.512 34.6203L126.495 34.6136L124.479 34.6069L124.369 34.9368L124.259 35.2668L122.672 35.7516L121.085 36.2365L119.865 35.9784L118.645 35.7198L118.254 35.1124L117.863 34.505L117.632 35.1986L117.4 35.8918L116.795 35.6897L116.19 35.4877L116.188 34.8934L116.186 34.2992L115.273 34.6512L114.36 35.0029L114.642 35.7267L114.923 36.4508L113.621 36.3125L112.319 36.1747L111.684 36.1632L111.049 36.1513L110.541 36.9294L110.034 37.7076L109.015 37.3675L107.996 37.0276L107.887 37.3472L107.777 37.6668L106.214 37.9761L104.65 38.2853L104.257 38.1542L103.864 38.0231L104.078 37.3821L104.292 36.741L103.865 36.5984L103.438 36.4557L103.305 36.8527L103.173 37.2493L103.62 38.1453L104.067 39.0409L103.218 38.7573L102.368 38.4737L102.331 37.8675L102.294 37.2614L102.049 37.8809L101.805 38.4999L99.5242 39.4736L97.2435 40.4479L95.2854 40.4331L93.3276 40.4184L91.5421 40.911L89.7571 41.4034L89.0548 40.892L88.3529 40.3808L88.1385 41.0231L87.9241 41.6655L86.2478 41.7068L84.5715 41.7485L84.4479 42.1186L84.3242 42.4891L83.5333 41.913L82.7424 41.337L82.2282 42.1248L81.7142 42.9132L81.1639 42.4601L80.614 42.0073L80.4838 42.8596L80.3537 43.712L79.7042 43.5232L79.0548 43.3345L77.8685 43.3308L76.6823 43.3272L74.9814 44.0015L73.2802 44.6756L72.11 45.1162L70.9398 45.5568L70.6242 45.452L70.3081 45.3474L67.2758 46.2342L64.2437 47.1215L63.4185 46.846L62.5936 46.5707L62.148 46.9425L61.7019 47.3141L60.4874 46.7007L59.2726 46.0867L58.4612 47.1372L57.6497 48.1882L55.8503 48.8035L54.0504 49.4186L53.3812 49.1952L52.7115 48.9717L52.5964 49.3165L52.4812 49.6614L49.0157 50.1086L45.5499 50.5562L45.3798 50.2163L45.2103 49.8761L46.6782 45.4558L48.1462 41.0355L48.093 37.6929L48.0399 34.3503L47.3348 33.0462L46.6297 31.7421L45.9412 31.5123L45.2527 31.2824L45.8094 30.5183L46.3661 29.7542L46.0956 29.6639L45.8251 29.5736L44.8183 29.7452L43.8118 29.9175L43.3721 29.2098L42.9325 28.5021L41.7686 28.4128L40.6047 28.324L40.4647 28.7432L40.3248 29.1625L39.3631 28.8419L38.4013 28.5214L36.8029 29.1748L35.205 29.8283L34.4417 29.5735L33.6789 29.3189L33.3248 29.6139L32.9712 29.9091L30.2129 30.315L27.4548 30.7214L27.3496 31.0368L27.2444 31.3518L25.3392 31.8315L23.434 32.3113L21.5166 32.8587L19.5992 33.4061L17.694 33.8859L15.7888 34.3656L15.6603 34.7507L15.5317 35.1357L14.6962 34.8568L13.8612 34.5781L12.5269 35.2014L11.1931 35.8248L10.1505 36.1893L9.10782 36.5537L7.73613 36.7698L6.36444 36.9859L6.17457 37.5547L5.98469 38.1236L5.51887 37.9681L5.05347 37.8127L3.93034 38.5065L2.8072 39.2003L2.6239 39.701L2.44118 40.2014L1.49587 40.1875L0.550563 40.1736L0.42203 40.5586L0.293494 40.9437L1.09422 40.9084L1.89451 40.873L1.3814 41.6602L0.867731 42.4477L3.20906 43.3153L5.55039 44.1828L5.91424 43.9153L6.27823 43.6473L11.1088 42.9642L15.939 42.281L16.3618 41.7671L16.7844 41.2537L17.4392 41.4722L18.0934 41.6906L18.2361 41.2633L18.3788 40.8359L18.8386 40.9894L19.2984 41.1429L22.4396 40.054L25.5808 38.9652L26.1744 39.1633L26.768 39.3615L28.4386 38.4818L30.1086 37.6025L30.577 37.9878L31.045 38.373L31.4341 38.0483L31.8231 37.7241L32.8663 38.0723L33.9095 38.4205L34.1234 37.7795L34.3374 37.1384L35.1567 37.4119L35.9755 37.6852L36.2677 37.2964L36.5594 36.9079L38.2452 37.1823L39.9311 37.4563L39.708 38.1247L39.485 38.7926L40.2484 39.3486L41.0114 39.9044L40.8704 41.1322L40.7296 42.3596L40.7782 44.2358L40.8268 46.1121L40.2514 46.47L39.6755 46.8278L39.8882 47.3387L40.101 47.8495L39.9902 50.7869L39.8794 53.7242L40.2928 54.3894L40.7062 55.0551L40.5391 55.5556L40.372 56.056L42.4697 57.282L44.5679 58.5082L47.6497 58.4835L50.732 58.4588L53.0611 58.1947L55.3907 57.9307L55.6959 58.1561L56.001 58.3819L57.3592 57.7637L58.7172 57.146L59.4073 57.6485L60.097 58.1509L60.3206 57.4808L60.5442 56.8111L61.5976 57.1627L62.6511 57.5144L63.3937 56.8123L64.1363 56.1102L64.7623 56.3192L65.3884 56.5282L65.5144 56.1509L65.6405 55.7731L66.47 55.7783L67.2996 55.783L69.5086 55.3026L71.7176 54.8221L72.0314 55.1981L72.3451 55.5745L73.8851 54.8769L75.4253 54.1789L75.9638 54.3586L76.5022 54.5384L76.6331 54.1465L76.764 53.7541L79.0458 53.6775L81.3275 53.6008L82.3586 53.3194L83.3894 53.0375L84.2719 53.3321L85.1548 53.6268L87.0564 52.8561L88.9582 52.085L89.6866 52.3092L90.4151 52.5329L90.8219 52.1937L91.2287 51.8545L91.9552 52.097L92.6821 52.3397L93.5012 51.6631L94.3203 50.9866L94.8921 51.1775L95.4639 51.3683L96.9874 51.1526L98.5109 50.9372L98.9633 50.3872L99.4156 49.8376L100.645 50.248L101.874 50.6583L102.933 50.0618L103.992 49.4653L104.515 49.6397L105.037 49.8141L105.751 49.3704L106.465 48.9271L107.84 49.0733L109.216 49.2193L109.623 48.7245L110.03 48.2298L110.777 48.1965L111.524 48.1631L111.949 48.8464L112.373 49.5294L112.59 48.8777L112.808 48.2264L114.378 48.1468L115.948 48.0673L116.739 48.2946L117.529 48.5219L118.251 48.0328L118.973 47.5442L120.637 47.0479L122.301 46.5523L123.315 46.8908L124.329 47.2295L125.346 46.619L126.363 46.0085L127.384 46.3491L128.404 46.6897L129.15 46.2262L129.896 45.7628L130.255 45.8825L130.614 46.0023L134.264 45.5584L137.914 45.1146L138.277 45.2357L138.64 45.3568L140.902 45.076L143.165 44.7953L143.479 44.5644L143.794 44.3341L145.671 44.1978L147.548 44.0616L147.834 44.405L148.12 44.7481L148.913 43.9986L149.705 43.2495L150.865 43.9127L152.025 44.5762L152.235 43.9459L152.446 43.3155L153.051 43.5177L153.656 43.7197L153.732 44.3388L153.808 44.9577L153.951 43.9305L154.094 42.9033L154.975 42.7528L155.855 42.6026L156.698 43.1524L157.541 43.7022L157.669 43.321L157.796 42.9394L159.997 42.7365L162.197 42.5334L162.29 42.2707L162.382 42.0079L165.308 42.1358L168.234 42.2637L169.113 42.4747L169.993 42.6856L170.709 41.9738L171.425 41.2625L171.897 41.616L172.369 41.9701L172.854 41.3802L173.339 40.7905L174.103 41.0452L174.866 41.3L175.326 40.7412L175.786 40.1821L176.868 40.5433L177.95 40.9044L177.835 41.2463L177.721 41.5882L177.061 41.9179L176.402 42.2473L176.729 43.0893L177.056 43.9309L176.31 44.3943L175.564 44.8578L174.732 44.5803L173.901 44.3028L173.887 45.2481L173.873 46.1934L173.417 46.0411L172.961 45.8889L172.738 46.5568L172.515 47.2248L171.598 46.77L170.681 46.3153L170.467 46.9563L170.253 47.5974L169.605 47.761L168.957 47.9241L168.674 48.7711L168.391 49.6181L167.668 49.6499L166.945 49.6821L166.78 50.1761L166.615 50.6701L165.513 50.771L164.41 50.8718L163.94 51.8126L163.471 52.7536L162.785 52.7839L162.099 52.8144L161.917 53.361L161.735 53.9072L160.788 54.826L159.84 55.7443L159.655 55.3728L159.469 55.0015L159.243 55.6806L159.016 56.3601L157.306 57.2142L155.596 58.0683L155.371 58.7423L155.146 59.4162L154.748 59.2836L154.35 59.1508L153.883 60.0634L153.415 60.976L152.888 60.6645L152.36 60.3534L151.487 60.3405L150.615 60.3273L150.646 61.0258L150.677 61.7244L151.272 61.9231L151.868 62.1218L151.627 62.8424L151.387 63.5625L152 64.8913L152.612 66.2201L151.915 66.3845L151.218 66.5485L151.372 67.2001L151.525 67.8511L152.366 67.2541L153.207 66.6571L153.548 67.3394L153.888 68.0211L154.622 68.2661L155.355 68.5109L155.393 69.1171L155.43 69.7232L155.729 68.9409L156.027 68.1585L156.6 68.6301L157.174 69.1016L157.646 68.5278L158.118 67.9536L158.633 68.3765L159.146 68.7997L160.333 68.7507L161.519 68.7022L162.585 67.4973L163.651 66.2928L165.099 65.7075L166.548 65.1222L166.936 65.2519L167.324 65.3814L169.347 64.0381L171.37 62.6945L172.326 62.3845L173.283 62.074L173.335 61.5325L173.388 60.9904L174.839 59.9326L176.29 58.8748L176.902 59.0791L177.514 59.2834L177.743 58.766L177.972 58.2488L178.028 57.8966L178.085 57.5444L179.289 56.8924L180.493 56.2404L181.818 55.1389L183.143 54.0375L183.98 54.3171L184.818 54.5968L185.852 54.1106L186.885 53.6243L187.487 52.7809L188.09 51.9374L188.629 52.3817L189.169 52.826L189.444 52.0025L189.719 51.179L191.386 50.225L193.053 49.271L193.361 49.3737L193.668 49.4764L193.262 49.8156L192.855 50.1548L193.53 50.3802L194.206 50.6058L195.049 49.6998L195.893 48.7939L196.465 48.9851L197.038 49.1761L197.352 48.4499L197.667 47.7239L197.923 47.0966L198.178 46.4696L199.186 46.6538L200.193 46.8385L199.986 47.4569L199.78 48.0752L200.216 48.7775L200.652 49.4798L200.43 51.8759L200.207 54.2715L200.542 55.0957L200.876 55.9198L200.735 58.6038L200.594 61.2879L200.463 63.8564L200.331 66.4248L201.148 66.6977L201.966 66.9707L202.367 66.6362L202.768 66.3018L203.605 55.1858L204.442 44.0699L204.983 42.4583L205.524 40.8469L206.966 40.562L208.407 40.2775L208.607 41.0908L208.806 41.9042L209.264 40.5323L209.722 39.1609L209.43 39.0634L209.138 38.9658L210.06 36.4239L210.982 33.8818L210.395 33.6857L209.807 33.4897L210.27 32.5753L210.732 31.661L209.916 30.1064L209.099 28.5516L208.354 28.0102L207.611 27.4685L207.697 26.3411L207.783 25.2142L207.189 25.0157L206.594 24.8172L206.463 25.2091L206.332 25.6005L206.78 25.9372L207.229 26.2735L206.71 26.9032L206.192 27.533L205.782 27.396L205.372 27.2591L204.924 26.3624L204.476 25.4658L203.677 25.3697L202.879 25.2742L202.76 26.0482L202.641 26.8226L202.167 26.6643L201.693 26.5061L201.069 25.8467L200.446 25.1875L198.168 25.1194L195.889 25.0514L195.774 24.562L195.659 24.0729L191.808 22.8327L187.958 21.5927L186.879 20.9123L185.8 20.2324L185.655 20.6679L185.509 21.1038L184.69 20.8303L183.871 20.557L183.869 19.9627L183.868 19.3685L183.106 19.6427L182.343 19.9172L180.461 19.5925L178.58 19.2676L178.458 18.7489L178.335 18.2307L177.206 18.1445L176.076 18.0581L176.212 17.6504L176.348 17.2427L173.963 16.3584L171.577 15.4745L171.272 15.1086L170.966 14.7426L170.149 15.0606L169.331 15.3779L169.001 14.7184L168.672 14.0583L167.261 13.5876L165.851 13.1168L166.065 12.4758L166.279 11.8347L165.839 11.6876L165.398 11.5404L164.938 12.0994L164.478 12.6583L163.932 12.4763L163.387 12.2941L163.452 11.3179L163.517 10.3421L162.945 10.4768L162.374 10.611L162.361 11.5166L162.347 12.4222L161.915 12.2779L161.483 12.1337L161.158 11.0407L160.834 9.94716L160.373 10.3311L159.913 10.7151L158.668 9.95521L157.423 9.19529L156.473 8.94883L155.522 8.70237L154.077 7.58902L152.631 6.47525L150.004 5.80777L147.377 5.13987L146.835 5.62662L146.293 6.11307L145.459 5.83475L144.626 5.55657L144.768 5.12921L144.911 4.70184L144.266 4.48643L143.621 4.27102L143.174 3.17207L142.728 2.07312L142.466 1.98581L142.205 1.89865L141.825 2.08869ZM134.999 3.09034L134.775 3.76301L135.534 3.86235L136.292 3.96213L136.648 3.48727L137.005 3.01255L136.114 2.71526L135.224 2.4181L134.999 3.09034ZM212.929 29.3102L212.519 29.6517L213.118 30.1446L213.716 30.637L214.034 30.4784L214.351 30.3198L214.222 29.7703L214.093 29.2203L213.716 29.0944L213.339 28.9686L212.929 29.3102ZM181.45 19.0362L181.378 19.2498L181.592 19.3212L181.806 19.3925L181.877 19.1788L181.948 18.9651L181.735 18.8938L181.521 18.8225L181.45 19.0362ZM135.738 6.16923L136.306 6.97018L136.699 6.87746L137.091 6.78516L137.207 6.43643L137.324 6.08771L136.247 5.72821L135.17 5.36871L135.738 6.16923ZM139.21 10.3984L139.067 10.8257L138.64 10.6831L138.212 10.5404L138.355 10.113L138.498 9.68568L138.925 9.82834L139.352 9.97099L139.21 10.3984ZM136.265 11.157L136.455 11.5368L136.835 11.3474L137.215 11.1573L136.645 10.9672L136.075 10.777L136.265 11.157ZM141.201 17.238L141.011 17.8076L141.391 17.6182L141.771 17.4281L141.582 17.0481L141.392 16.6683L141.201 17.238ZM150.948 20.7122L151.431 21.5693L152.841 21.3468L154.252 21.1247L154.566 21.5012L154.88 21.8777L158.114 23.1766L161.347 24.4757L162.092 24.7348L162.836 24.9938L162.706 25.3849L162.575 25.7759L164.189 26.2767L165.803 26.7779L167.151 27.4458L168.498 28.1136L168.819 28.756L169.14 29.3984L168.774 29.5808L168.408 29.7636L167.288 29.3897L166.168 29.0157L165.766 29.5047L165.364 29.9935L164.869 29.5868L164.375 29.1795L163.853 29.8712L163.331 30.5624L159.937 30.9729L156.542 31.3835L155.637 31.0812L154.731 30.7788L154.584 31.2194L154.436 31.6604L153.606 31.6578L152.776 31.6552L150.168 31.9977L147.56 32.3402L147.44 32.6979L147.321 33.0552L146.691 32.8448L146.06 32.6344L146.677 31.5339L147.293 30.4335L147.545 26.7732L147.797 23.113L147.584 21.607L147.37 20.1013L147.481 19.771L147.591 19.4406L148.404 19.4946L149.217 19.5489L149.841 19.702L150.465 19.8553L150.948 20.7122ZM158.367 24.1553L158.295 24.369L158.509 24.4403L158.723 24.5117L158.794 24.298L158.865 24.0843L158.652 24.013L158.438 23.9416L158.367 24.1553ZM205.874 42.6261L205.588 43.4808L206.229 43.6948L206.87 43.9088L207.156 43.0541L207.441 42.1993L206.8 41.9854L206.159 41.7714L205.874 42.6261ZM157.652 29.1416L157.581 29.3553L157.794 29.4266L158.008 29.4979L158.079 29.2843L158.151 29.0706L157.937 28.9992L157.723 28.9279L157.652 29.1416ZM183.64 40.9321L183.506 41.3342L183.078 41.1916L182.651 41.0489L182.874 40.3827L183.096 39.7164L183.435 40.1232L183.774 40.5299L183.64 40.9321ZM180.72 41.5067L179.572 42.1586L178.991 42.9011L178.409 43.6435L178.247 42.9565L178.085 42.2697L178.566 41.5324L179.047 40.7956L179.802 41.0477L180.557 41.2998L181.17 40.4358L181.783 39.5718L181.825 40.2132L181.867 40.8552L180.72 41.5067ZM196.468 48.0361L196.325 48.4634L195.898 48.3208L195.471 48.1781L195.613 47.7508L195.756 47.3234L196.183 47.4661L196.611 47.6087L196.468 48.0361ZM145.469 32.9119L145.326 33.3393L144.899 33.1966L144.472 33.054L144.614 32.6266L144.757 32.1992L145.184 32.3419L145.612 32.4846L145.469 32.9119ZM175.335 43.1584L175.095 43.9889L175.507 43.5031L175.918 43.0169L175.746 42.6726L175.574 42.3283L175.335 43.1584ZM134.119 31.8148L134.309 32.1946L134.689 32.0052L135.069 31.8151L134.499 31.625L133.929 31.4348L134.119 31.8148ZM165.202 52.0579L165.139 52.2464L164.544 52.3863L163.948 52.5268L164.418 52.1355L164.888 51.7436L165.076 51.8066L165.265 51.8695L165.202 52.0579ZM137.841 45.8025L137.77 46.0162L137.983 46.0876L138.197 46.1589L138.268 45.9452L138.34 45.7315L138.126 45.6602L137.912 45.5889L137.841 45.8025ZM157.926 53.9322L157.855 54.1459L158.069 54.2172L158.282 54.2885L158.354 54.0748L158.425 53.8612L158.211 53.7898L157.998 53.7185L157.926 53.9322ZM39.5276 20.1672L39.2961 20.8608L40.1147 20.5427L40.9334 20.2246L40.9872 20.0635L41.0411 19.902L40.4001 19.688L39.759 19.474L39.5276 20.1672ZM41.1118 21.113L41.0405 21.3267L41.2542 21.398L41.4679 21.4694L41.5392 21.2557L41.6105 21.042L41.3968 20.9707L41.1831 20.8993L41.1118 21.113ZM39.3988 22.6819L38.9889 23.0234L39.5537 23.4884L40.1183 23.9528L40.6584 23.8258L41.1988 23.6984L41.333 23.2962L41.4672 22.8941L40.6377 22.6172L39.8082 22.3403L39.3988 22.6819ZM33.2933 21.7686L33.0971 22.3562L31.7295 22.1847L30.3618 22.0131L30.095 22.8123L29.8282 23.6114L30.3738 24.5796L30.9189 25.5477L31.3946 25.7065L31.8698 25.8651L32.322 25.4879L32.7742 25.1107L32.3553 24.6084L31.9364 24.1062L32.4976 23.3355L33.0589 22.5648L34.0198 22.6286L34.9802 22.6927L34.8509 22.1423L34.7211 21.5921L34.1053 21.3865L33.4894 21.181L33.2933 21.7686ZM148.805 59.9122L148.734 60.1259L148.948 60.1972L149.161 60.2685L149.233 60.0548L149.304 59.8412L149.09 59.7698L148.877 59.6985L148.805 59.9122ZM152.793 63.6182L152.722 63.8319L152.508 63.7606L152.294 63.6892L152.366 63.4756L152.437 63.2619L152.651 63.3332L152.864 63.4045L152.793 63.6182ZM163.698 69.3679L163.405 70.2478L163.832 70.3905L164.259 70.5331L164.465 69.9173L164.67 69.3015L164.331 68.8947L163.992 68.4879L163.698 69.3679ZM46.3791 30.946L46.3078 31.1597L46.5215 31.231L46.7352 31.3023L46.8065 31.0886L46.8778 30.875L46.6641 30.8036L46.4505 30.7323L46.3791 30.946ZM78.3598 41.859L78.1697 42.4286L78.5497 42.2392L78.9295 42.0491L78.74 41.6691L78.55 41.2893L78.3598 41.859ZM162.621 69.7488L162.55 69.9625L162.764 70.0338L162.977 70.1051L163.049 69.8915L163.12 69.6778L162.906 69.6065L162.693 69.5351L162.621 69.7488ZM48.5152 33.2977L48.515 33.8676L48.8355 33.939L49.1561 34.0104L49.2915 33.7112L49.427 33.4121L48.9712 33.0699L48.5155 32.7278L48.5152 33.2977ZM143.887 66.1077L143.745 66.535L144.172 66.6777L144.6 66.8204L144.742 66.393L144.885 65.9656L144.457 65.823L144.03 65.6803L143.887 66.1077ZM88.2568 53.4748L88.1855 53.6885L88.3991 53.7599L88.6128 53.8312L88.6842 53.6175L88.7555 53.4038L88.5418 53.3325L88.3281 53.2612L88.2568 53.4748ZM53.3619 47.0233L53.1563 47.6391L53.4572 47.9999L53.7576 48.3605L54.4198 47.9493L55.0819 47.5381L54.8945 47.163L54.7072 46.788L54.1371 46.5976L53.5674 46.4075L53.3619 47.0233ZM57.2982 58.9071L56.9339 59.089L56.8149 59.4454L56.6961 59.8014L57.3371 60.0154L57.9782 60.2294L58.1124 59.8272L58.2467 59.4251L57.9546 59.0749L57.663 58.7248L57.2982 58.9071Z" fill="#142657"/>
<path fill-rule="evenodd" clip-rule="evenodd" d="M148.014 6.59616L147.029 6.88865L146.691 6.4826L146.352 6.07655L146.195 6.54793L146.038 7.01931L145.527 6.77133L145.016 6.52377L144.281 6.33497L143.546 6.14558L143.088 7.06164L142.63 7.97755L141.528 8.07838L140.426 8.1792L140.321 8.49203L140.217 8.80443L140.94 8.77268L141.663 8.74051L141.557 9.05975L141.45 9.37899L140.516 9.68704L139.582 9.99553L140.807 10.9515L142.031 11.9079L141.914 12.2574L141.797 12.6074L141.199 12.6202L140.602 12.6324L140.801 13.0694L141 13.5058L141.797 13.1962L142.593 12.8865L143.31 13.6447L144.026 14.4026L144.208 15.5209L144.389 16.6392L145.105 18.6486L145.822 20.6582L145.626 21.6723L145.429 22.6863L145.514 24.0739L145.598 25.4619L145.36 25.9225L145.121 26.3833L145.216 27.761L145.31 29.1386L144.935 29.4521L144.559 29.7651L145.002 30.6522L145.445 31.5395L145.88 31.4367L146.315 31.3345L146.534 30.3184L146.753 29.303L146.738 29.0605L146.723 28.818L146.888 28.5049L147.052 28.1921L147.209 26.1184L147.366 24.0454L146.944 23.9043L146.522 23.7633L146.944 23.2499L147.367 22.7365L147.047 22.0969L146.728 21.4573L147.093 21.5793L147.459 21.7013L146.995 20.6435L146.531 19.5862L147.057 19.4617L147.584 19.3378L147.55 18.564L147.516 17.7903L149.945 18.9191L152.376 20.0481L154.256 20.8179L156.136 21.588L158.793 22.8773L161.451 24.1661L163.707 24.8758L165.964 25.5854L165.851 25.9256L165.737 26.2653L167.345 26.784L168.953 27.3028L170.32 27.8331L171.686 28.3638L171.412 29.1848L171.138 30.0053L169.762 29.859L168.386 29.7126L168.278 30.0365L168.17 30.3605L165.488 30.5695L162.806 30.7785L162.689 31.1281L162.572 31.4781L161.414 31.3894L160.256 31.3011L160.164 31.578L160.071 31.855L158.191 31.8183L156.311 31.781L155.685 31.5719L155.058 31.3627L154.538 31.7829L154.018 32.203L150.659 32.6615L147.3 33.1195L147.168 33.5148L147.036 33.9097L146.207 33.6328L145.377 33.3559L145.025 33.6497L144.673 33.9434L143.663 33.377L142.653 32.8109L142.505 33.2541L142.357 33.6973L140.95 33.5476L139.543 33.3981L139.112 33.9215L138.681 34.4455L137.968 34.2423L137.256 34.0391L135.698 34.4356L134.141 34.832L132.552 35.0131L130.963 35.1942L130.575 35.0645L130.186 34.9347L129.44 35.3981L128.694 35.8616L127.825 35.5715L126.956 35.2815L125.199 35.8823L123.441 36.483L122.878 36.297L122.315 36.1108L119.856 36.4758L117.398 36.8406L116.576 36.5662L115.753 36.2917L115.285 37.0097L114.817 37.7274L112.782 37.8823L110.747 38.0367L108.738 38.237L106.728 38.4373L105.144 39.0423L103.56 39.6473L101.873 39.7198L100.187 39.7918L99.6029 40.118L99.0191 40.4442L97.0245 40.7278L95.03 41.0111L94.7807 41.2841L94.531 41.5569L93.8194 41.318L93.1074 41.0789L90.8629 41.3998L88.6184 41.7207L88.3725 41.9891L88.126 42.2579L85.919 42.4664L83.7119 42.6753L81.6029 43.4395L79.494 44.2036L79.1874 43.8358L78.8808 43.4679L78.1402 43.9279L77.3995 44.388L76.5974 44.1202L75.7948 43.8523L75.5808 44.4933L75.3668 45.1344L74.7258 44.9204L74.0847 44.7064L73.9769 45.0295L73.869 45.3526L72.2845 45.4748L70.7002 45.5967L68.7128 46.2984L66.7251 46.9995L66.3755 46.8828L66.026 46.7661L65.2317 47.4224L64.4369 48.0786L63.6875 47.7923L62.9381 47.5061L61.5918 47.5891L60.246 47.6723L59.7833 48.2346L59.32 48.7972L59.0216 48.4387L58.7232 48.0807L57.3057 48.7L55.8883 49.3193L54.7984 49.7867L53.7086 50.2541L53.2752 50.1095L52.8423 49.965L51.708 50.18L50.5741 50.3952L49.6953 50.7156L48.8167 51.0355L48.4078 50.7608L47.9986 50.4855L47.1343 51.0866L46.2707 51.6875L45.4862 51.1164L44.7023 50.545L45.3024 48.0869L45.9026 45.6288L46.6965 44.1725L47.4904 42.7161L47.6707 41.1714L47.8516 39.6263L47.5584 39.234L47.2658 38.8413L47.6041 37.5293L47.9423 36.2172L47.5109 34.8858L47.0795 33.5543L46.3529 32.8183L45.6263 32.0822L45.199 31.4328L44.7711 30.7836L43.8126 30.1777L42.8543 29.5724L40.4603 29.5484L38.0669 29.5241L34.7953 30.076L31.5236 30.6282L30.1234 31.0462L28.7229 31.464L28.2549 31.3078L27.7865 31.1515L27.6439 31.5788L27.5012 32.0062L26.9345 31.817L26.3683 31.628L25.0517 32.338L23.7348 33.0473L22.2061 33.1431L20.6776 33.2385L19.4804 33.9337L18.2832 34.6289L17.8289 34.4772L17.3746 34.3256L16.3158 34.9221L15.2569 35.5186L14.4552 35.251L13.653 34.9832L13.1933 35.5422L12.7332 36.1011L12.1477 35.9057L11.5622 35.7102L10.5055 36.545L9.44888 37.3797L8.74986 37.1473L8.05099 36.9145L5.92963 38.0559L3.8087 39.1975L3.18877 40.5837L2.5687 41.9702L4.72694 42.5382L6.88517 43.1062L7.92331 42.9146L8.96189 42.7231L9.40352 42.823L9.84529 42.9225L11.1876 42.8144L12.5297 42.7067L12.6587 42.3203L12.7875 41.9344L14.2654 41.8298L15.7432 41.7256L16.4351 41.0716L17.1269 40.4177L17.753 40.6267L18.3791 40.8357L18.5217 40.4083L18.6644 39.9809L19.1755 40.1516L19.6867 40.3222L21.8115 39.7253L23.9363 39.1284L24.1822 38.8599L24.4286 38.5912L26.6681 38.3793L28.9081 38.1675L29.5646 37.7716L30.2212 37.3756L32.9136 37.1359L35.6062 36.8957L36.407 36.631L37.2078 36.3664L38.429 36.6923L39.6501 37.0182L40.1326 37.7697L40.6151 38.5212L41.2724 39.8235L41.9292 41.1257L41.6381 42.083L41.3475 43.0405L40.9091 45.9815L40.4712 48.9227L40.609 49.7933L40.7471 50.6644L40.5172 51.3533L40.2871 52.0427L40.4833 53.659L40.6799 55.2754L42.624 56.7067L44.5682 58.138L46.1736 58.0982L47.7786 58.0583L47.9079 57.6711L48.0371 57.2839L48.5994 57.7466L49.1612 58.2092L50.4718 58.155L51.7821 58.1013L52.1029 57.8816L52.4231 57.6622L53.557 57.447L54.6914 57.2319L55.1328 57.3793L55.5747 57.5268L57.5035 57.0563L59.4323 56.5854L61.2067 56.5944L62.9816 56.6032L63.481 56.1842L63.9807 55.7659L66.2852 55.5087L68.59 55.2521L69.0094 54.9019L69.4293 54.5519L70.0451 54.7575L70.661 54.963L71.801 54.3936L72.941 53.8242L73.7958 54.1095L74.6505 54.3949L74.7792 54.0094L74.9078 53.6239L76.3391 53.6048L77.7704 53.5858L77.9301 53.1076L78.0898 52.6289L78.854 53.1856L79.6181 53.7423L79.7678 53.294L79.9173 52.8461L81.0751 52.9348L82.2331 53.0231L82.3665 52.6235L82.5 52.2235L83.0033 52.4946L83.5065 52.7656L84.9835 52.6098L86.4605 52.4536L87.2728 52.1547L88.085 51.8559L92.0204 51.2008L95.9553 50.546L97.0581 50.3384L98.1605 50.1307L98.964 49.858L99.7674 49.5856L101.255 49.7539L102.742 49.9223L102.847 49.6082L102.952 49.2936L104.686 49.0797L106.42 48.8657L106.58 48.3858L106.74 47.9058L107.272 48.3436L107.804 48.781L108.52 48.336L109.237 47.8908L109.804 48.0803L110.372 48.2697L111.037 47.6642L111.702 47.0593L111.91 47.4771L112.119 47.8949L112.702 47.7007L113.286 47.506L115.677 47.459L118.067 47.4121L119.047 46.8399L120.027 46.2678L120.498 46.4252L120.969 46.5825L121.839 46.4496L122.708 46.3168L125.179 46.0275L127.651 45.7383L128.051 45.4481L128.45 45.1583L128.804 45.5823L129.158 46.0067L129.546 45.6835L129.933 45.3603L131.496 45.1389L133.058 44.9179L133.86 45.1858L134.663 45.4538L135.123 44.8947L135.583 44.3359L136.162 44.5292L136.741 44.7226L139.458 44.625L142.176 44.5276L143.114 44.059L144.052 43.5904L146.064 43.5972L148.075 43.6041L148.188 43.2643L148.301 42.925L149.96 43.1532L151.618 43.3811L152.685 42.9725L153.753 42.564L154.494 42.2177L155.235 41.8714L156.334 42.2383L157.433 42.6051L157.576 42.1777L157.718 41.7504L158.253 41.9261L158.788 42.1019L160.298 41.8478L161.808 41.5941L164.133 41.6606L166.459 41.7269L168.293 41.0997L170.128 40.4724L170.934 40.6114L171.74 40.7502L174.125 40.3495L176.51 39.9487L177.515 40.2841L178.52 40.6195L178.663 40.1921L178.805 39.7648L179.526 40.0053L180.246 40.2457L181.57 39.6347L182.895 39.0244L183.45 39.7027L184.005 40.3811L184.005 40.9723L184.005 41.5632L183.026 41.4982L182.048 41.433L181.907 41.8561L181.766 42.2787L180.417 42.7627L179.068 43.2462L178.896 43.7621L178.724 44.2775L177.663 44.6084L176.603 44.9393L176.445 45.4116L176.288 45.8838L174.375 46.632L172.463 47.3797L172.2 48.1699L171.936 48.9601L171.001 48.898L170.067 48.8359L169.472 49.7678L168.877 50.7001L168.496 50.573L168.115 50.4457L167.865 51.1953L167.615 51.9445L164.837 53.1513L162.059 54.3582L161.871 54.9223L161.683 55.4868L159.665 56.5628L157.647 57.6386L157.466 58.1716L157.284 58.7046L156.856 58.5619L156.429 58.4193L156.227 59.0248L156.025 59.63L155.443 59.63L154.861 59.6297L154.217 61.754L153.573 63.8783L153.723 65.7093L153.872 67.5403L154.615 67.7854L155.358 68.0307L156.674 67.8198L157.991 67.6091L159.112 67.9833L160.233 68.3576L161.053 68.0391L161.874 67.7202L162.048 67.1971L162.223 66.6735L163.328 66.0198L164.434 65.3662L164.82 65.4642L165.207 65.562L166.703 64.6352L168.2 63.7081L170.386 62.4952L172.572 61.2822L172.759 60.7232L172.945 60.1647L174.89 59.1935L176.834 58.222L177.926 57.1609L179.017 56.0998L179.758 56.0673L180.499 56.0345L180.702 55.4255L180.905 54.8169L181.629 54.7847L182.352 54.753L182.57 54.0983L182.789 53.444L183.54 53.6821L184.292 53.9202L185.906 52.572L187.521 51.2237L188.076 51.409L188.631 51.5943L188.834 50.9866L189.037 50.3789L191.234 49.4863L193.432 48.5936L193.645 47.9556L193.858 47.3171L195.089 47.187L196.32 47.0568L196.544 46.388L196.767 45.7188L197.469 46.0928L198.171 46.4668L198.918 45.6473L199.664 44.8279L199.949 44.9227L200.233 45.0176L200.252 46.4489L200.271 47.8802L200.739 48.0365L201.208 48.1929L200.964 48.7053L200.721 49.2178L200.709 50.2828L200.698 51.3478L201.028 51.4579L201.358 51.568L201.123 53.2706L200.887 54.9732L201.168 55.7001L201.449 56.4274L201.288 57.1651L201.127 57.9032L200.823 61.2453L200.519 64.5874L200.912 64.7186L201.305 64.8499L201.074 65.543L200.842 66.2366L201.655 65.9208L202.468 65.605L202.332 65.0281L202.196 64.4513L202.351 63.7826L202.507 63.1135L202.849 60.3778L203.191 57.6421L203.381 55.4493L203.571 53.2566L203.276 53.1583L202.981 53.0599L203.21 49.9301L203.439 46.8003L204.127 44.0503L204.814 41.3003L206.674 39.6757L208.533 38.0513L209.162 36.6633L209.791 35.2749L209.796 33.6688L209.802 32.0624L209.436 31.9404L209.071 31.8185L209.084 30.9115L209.098 30.0045L207.398 29.1075L205.699 28.2106L205.322 27.6227L204.946 27.0348L204.316 27.1829L203.687 27.3311L200.609 26.4892L197.53 25.6471L191.768 23.699L186.006 21.7505L179.448 19.3401L172.891 16.9298L170.676 16.0958L168.46 15.2618L168.578 14.9096L168.696 14.5571L166.156 13.9817L163.617 13.4067L161.66 12.8656L159.704 12.3249L159.204 11.5063L158.703 10.6876L156.351 9.74869L154 8.81021L153.604 8.17275L153.208 7.53515L151.103 6.91961L149 6.30379L148.014 6.59616ZM142.489 4.84306L142.299 5.41273L142.679 5.22327L143.059 5.03323L142.87 4.65316L142.68 4.2734L142.489 4.84306ZM31.5772 22.2546L31.1622 22.4619L30.909 23.2204L30.6559 23.9786L31.0179 24.4124L31.3794 24.8461L31.6075 24.7322L31.836 24.6181L31.9141 23.3327L31.9926 22.0475L31.5772 22.2546ZM152.508 64.4727L152.437 64.6864L152.651 64.7577L152.864 64.829L152.936 64.6154L153.007 64.4017L152.793 64.3304L152.579 64.259L152.508 64.4727Z" fill="#142657"/>
</svg>
